<svg width="151" height="50" viewBox="0 0 151 50" fill="none" xmlns="http://www.w3.org/2000/svg">
<path d="M60.3384 26.7067C60.3448 26.9268 60.281 27.1432 60.1564 27.3247C60.104 27.4042 60.0342 27.4707 59.9522 27.5191C59.8702 27.5674 59.7783 27.5964 59.6834 27.6038L55.3204 27.6278C55.2014 27.6281 55.0842 27.5997 54.9786 27.5448C54.8731 27.49 54.7824 27.4103 54.7144 27.3128L51.4664 22.6588L48.0494 27.2877C47.9828 27.4351 47.8673 27.5549 47.7224 27.6267C47.5684 27.708 47.3965 27.7496 47.2224 27.7478H43.7564C43.6297 27.7578 43.5024 27.7403 43.3831 27.6964C43.2639 27.6525 43.1556 27.5832 43.0658 27.4934C42.9759 27.4035 42.9066 27.2952 42.8627 27.176C42.8188 27.0567 42.8013 26.9294 42.8114 26.8027V12.0178C42.8067 11.8924 42.828 11.7675 42.8739 11.6507C42.9198 11.534 42.9892 11.4279 43.0779 11.3392C43.1666 11.2506 43.2726 11.1811 43.3893 11.1353C43.5061 11.0894 43.631 11.0681 43.7564 11.0728H47.2224C47.4724 11.0746 47.7118 11.1747 47.8886 11.3516C48.0654 11.5284 48.1656 11.7677 48.1674 12.0178V18.4407L53.5234 11.6298C53.7049 11.4325 53.9335 11.2845 54.1878 11.1997C54.4421 11.1148 54.7138 11.0959 54.9774 11.1447L58.7104 11.1688H58.6864C58.7621 11.1709 58.8365 11.1885 58.9051 11.2207C58.9737 11.2528 59.0349 11.2988 59.0849 11.3557C59.1349 11.4125 59.1727 11.479 59.1958 11.5512C59.2189 11.6233 59.2269 11.6994 59.2194 11.7747C59.205 12.057 59.1033 12.3278 58.9284 12.5498L54.8084 18.1497L60.1884 26.1727C60.287 26.3333 60.339 26.5183 60.3384 26.7067Z" fill="white" stroke="white" stroke-width="0.5"/>
<path d="M60.7023 19.3628C60.6917 17.8025 61.1066 16.2689 61.9024 14.9268C62.6843 13.5877 63.799 12.4733 65.1384 11.6918C66.4867 10.9061 68.0193 10.4922 69.5799 10.4922C71.1404 10.4922 72.673 10.9061 74.0213 11.6918C75.3658 12.4707 76.485 13.5854 77.2693 14.9268C78.0549 16.2729 78.4689 17.8037 78.4689 19.3623C78.4689 20.9209 78.0549 22.4516 77.2693 23.7978C76.4851 25.1395 75.3659 26.2545 74.0213 27.0338C72.673 27.8195 71.1404 28.2335 69.5799 28.2335C68.0193 28.2335 66.4867 27.8195 65.1384 27.0338C63.7989 26.2519 62.6842 25.1373 61.9024 23.7978C61.1068 22.456 60.6919 20.9227 60.7023 19.3628ZM73.3544 19.1448C73.3594 18.469 73.1743 17.8055 72.8204 17.2298C72.4715 16.6541 71.9844 16.1746 71.4033 15.8348C70.829 15.492 70.1722 15.3119 69.5033 15.3138C68.8178 15.307 68.1433 15.4871 67.5524 15.8348C66.9744 16.1699 66.4939 16.6501 66.1583 17.2278C65.8195 17.8087 65.6437 18.4703 65.6493 19.1428C65.6467 19.6496 65.7446 20.152 65.9373 20.6208C66.13 21.0896 66.4139 21.5155 66.7723 21.8739C67.1307 22.2323 67.5566 22.5161 68.0253 22.7088C68.4941 22.9015 68.9965 22.9994 69.5033 22.9968C70.1723 22.9986 70.8292 22.8182 71.4033 22.4748C71.9873 22.1335 72.4751 21.6498 72.8213 21.0688C73.1737 20.4892 73.3583 19.8231 73.3544 19.1448Z" fill="white" stroke="white" stroke-width="0.5"/>
<path d="M80.8913 26.6817V11.8927C80.8852 11.6027 80.9892 11.3212 81.1823 11.1047C81.2794 10.9964 81.3992 10.9109 81.5332 10.8543C81.6672 10.7978 81.812 10.7716 81.9574 10.7777H85.2773C85.4168 10.7759 85.555 10.8042 85.6825 10.8606C85.81 10.917 85.9239 11.0003 86.0163 11.1047C86.2151 11.3184 86.3227 11.601 86.3163 11.8927V26.6777C86.3238 26.8263 86.3012 26.9749 86.2496 27.1145C86.198 27.2541 86.1187 27.3817 86.0163 27.4898C85.9201 27.5875 85.8049 27.6645 85.6778 27.7161C85.5508 27.7677 85.4145 27.7928 85.2773 27.7897H81.9574C81.8144 27.7967 81.6715 27.7735 81.538 27.7219C81.4046 27.6702 81.2834 27.5912 81.1823 27.4898C80.9822 27.2696 80.8776 26.9789 80.8913 26.6817Z" fill="white" stroke="white" stroke-width="0.5"/>
<path d="M103.262 27.5788C103.166 27.5301 102.463 26.8191 101.153 25.4458C99.844 24.0724 97.9293 22.0448 95.4093 19.3628C95.1667 19.1201 95.013 18.9987 94.9483 18.9987C94.918 18.9979 94.8885 19.0087 94.866 19.029C94.8435 19.0493 94.8296 19.0775 94.8273 19.1078C94.8074 19.2236 94.7991 19.3412 94.8023 19.4588V26.7058C94.8031 26.8316 94.779 26.9562 94.7313 27.0726C94.6835 27.189 94.6132 27.2947 94.5243 27.3838C94.4361 27.4781 94.3289 27.5528 94.2099 27.6029C94.0908 27.6531 93.9625 27.6776 93.8334 27.6748H90.6094C90.4566 27.6745 90.3058 27.6407 90.1675 27.5757C90.0293 27.5107 89.907 27.4162 89.8093 27.2987C89.5871 27.0585 89.4657 26.742 89.4703 26.4148V12.1397C89.4683 11.7901 89.5983 11.4526 89.8343 11.1947C89.9363 11.0675 90.0653 10.9645 90.212 10.8933C90.3586 10.822 90.5193 10.7843 90.6823 10.7827H93.6873C93.907 10.7727 94.1263 10.8098 94.3303 10.8918C94.5554 11.0233 94.7563 11.1924 94.9243 11.3918L98.5593 15.1848C100.24 16.9381 101.557 18.2994 102.51 19.2688C102.589 19.3283 102.68 19.3696 102.776 19.3897C102.874 19.3897 102.922 19.2604 102.922 19.0017V11.7788C102.923 11.6501 102.949 11.5227 102.999 11.4041C103.049 11.2855 103.122 11.1779 103.213 11.0877C103.295 10.9949 103.396 10.9202 103.509 10.8686C103.621 10.8169 103.743 10.7894 103.867 10.7877H106.944C107.116 10.7861 107.287 10.8197 107.445 10.8864C107.603 10.9532 107.746 11.0516 107.865 11.1757C107.988 11.2913 108.086 11.4307 108.153 11.5855C108.219 11.7403 108.254 11.9072 108.253 12.0758V26.4928C108.252 26.656 108.218 26.8173 108.153 26.9672C108.089 27.1171 107.995 27.2526 107.877 27.3658C107.769 27.4867 107.636 27.5837 107.488 27.6505C107.34 27.7173 107.18 27.7524 107.017 27.7538H104.278C104.064 27.7599 103.849 27.7478 103.636 27.7177C103.506 27.6883 103.38 27.6415 103.262 27.5788Z" fill="white" stroke="white" stroke-width="0.5"/>
<path d="M111.163 26.8757V11.6307C111.163 11.5195 111.185 11.4094 111.229 11.3072C111.273 11.205 111.337 11.113 111.418 11.0367C111.498 10.9544 111.594 10.8893 111.7 10.8456C111.807 10.8019 111.921 10.7805 112.035 10.7827H115.793C115.968 10.7856 116.141 10.8227 116.302 10.8917C116.44 10.9382 116.565 11.0171 116.665 11.1217L121.173 16.0657L125.899 11.1457C126.076 10.9766 126.301 10.8665 126.542 10.8307C126.82 10.7958 127.099 10.7797 127.378 10.7827H130.65C130.874 10.788 131.086 10.8791 131.244 11.037C131.402 11.1949 131.493 11.4075 131.498 11.6307V26.8757C131.501 26.9897 131.481 27.1031 131.439 27.2093C131.398 27.3156 131.335 27.4126 131.256 27.4947C131.179 27.5776 131.085 27.643 130.981 27.6868C130.876 27.7306 130.764 27.7517 130.65 27.7487H127.402C127.164 27.75 126.934 27.659 126.76 27.4947C126.672 27.418 126.601 27.3228 126.553 27.2159C126.505 27.109 126.48 26.993 126.481 26.8757V17.9567L122.581 22.9007C122.445 23.1034 122.261 23.2694 122.046 23.3837C121.83 23.498 121.589 23.5571 121.345 23.5557C121.106 23.5562 120.87 23.5021 120.655 23.3977C120.448 23.3024 120.269 23.1567 120.133 22.9737L116.133 17.9567L116.157 26.8757C116.16 26.9898 116.139 27.1032 116.098 27.2095C116.056 27.3157 115.994 27.4126 115.914 27.4947C115.837 27.5776 115.743 27.643 115.639 27.6868C115.534 27.7306 115.422 27.7517 115.308 27.7487H112.036C111.92 27.7503 111.806 27.7273 111.699 27.6813C111.593 27.6353 111.497 27.5673 111.419 27.4817C111.339 27.4028 111.274 27.3085 111.23 27.2045C111.186 27.1004 111.164 26.9887 111.163 26.8757Z" fill="white" stroke="white" stroke-width="0.5"/>
<path d="M134.454 19.9448L134.43 11.5098C134.43 11.0251 134.705 10.7828 135.254 10.7828H138.429C138.694 10.7666 138.957 10.8342 139.18 10.9758C139.266 11.0354 139.335 11.1153 139.382 11.2084C139.428 11.3015 139.451 11.4047 139.447 11.5088L139.547 19.4088C139.512 20.3156 139.819 21.2024 140.408 21.8928C140.698 22.1985 141.051 22.438 141.442 22.5949C141.833 22.7518 142.254 22.8224 142.674 22.8018C144.549 22.8018 145.486 21.7351 145.486 19.6018L145.535 11.5548C145.538 11.4465 145.566 11.3404 145.619 11.2455C145.671 11.1506 145.745 11.0697 145.835 11.0098C146.041 10.8551 146.293 10.7741 146.55 10.7798H149.773C150.028 10.7642 150.281 10.8369 150.488 10.9858C150.572 11.0534 150.637 11.1411 150.677 11.2406C150.717 11.3401 150.731 11.4483 150.718 11.5548V15.1418C150.718 17.3718 150.722 18.7615 150.73 19.3108C150.738 19.8601 150.742 20.1508 150.742 20.1828C150.765 21.4545 150.538 22.7182 150.075 23.9028C149.575 25.1212 148.699 26.1486 147.575 26.8358C146.11 27.6018 144.483 28.0049 142.83 28.0112C141.177 28.0174 139.546 27.6267 138.075 26.8718C136.893 26.1701 135.941 25.1382 135.336 23.9028C134.745 22.6679 134.443 21.3141 134.454 19.9448Z" fill="white" stroke="white" stroke-width="0.5"/>
<path d="M42.8086 32.2988H47.0996V33.1438H43.7086V35.1248H46.8636V35.9698H43.7086V38.1008H47.2666V38.9458H42.8086V32.2988Z" fill="white"/>
<path d="M48.7256 35.0408C49.2122 34.6107 49.8411 34.3762 50.4905 34.3828C51.8045 34.3828 52.3495 35.0968 52.3495 35.8668V38.1388C52.3462 38.4087 52.3589 38.6785 52.3875 38.9469H51.6375C51.6189 38.7215 51.6096 38.4962 51.6096 38.2708H51.5905C51.4269 38.5316 51.1953 38.7428 50.9206 38.8818C50.6459 39.0209 50.3386 39.0824 50.0316 39.0598C49.8414 39.0818 49.6487 39.064 49.4657 39.0075C49.2828 38.9511 49.1136 38.8572 48.9688 38.7318C48.8241 38.6065 48.7071 38.4524 48.6251 38.2794C48.5431 38.1064 48.4979 37.9182 48.4926 37.7268C48.4926 36.5818 49.5925 36.1868 50.9425 36.1868H51.5626V35.9998C51.5607 35.8665 51.531 35.7349 51.4754 35.6137C51.4198 35.4925 51.3394 35.3842 51.2396 35.2959C51.1397 35.2075 51.0224 35.1409 50.8954 35.1004C50.7683 35.0599 50.6342 35.0465 50.5016 35.0608C50.0297 35.0617 49.576 35.2431 49.2336 35.5678L48.7256 35.0408ZM51.1105 36.8058C50.3105 36.8058 49.3355 36.9468 49.3355 37.6608C49.3355 38.1678 49.7115 38.3838 50.2935 38.3838C50.4655 38.3942 50.6377 38.3674 50.7985 38.3053C50.9592 38.2432 51.1046 38.1472 51.2249 38.0239C51.3453 37.9005 51.4376 37.7527 51.4957 37.5905C51.5537 37.4283 51.5762 37.2555 51.5616 37.0838V36.8018L51.1105 36.8058Z" fill="white"/>
<path d="M53.9556 34.4958H54.8006V35.1808H54.8196C54.9475 34.9384 55.1394 34.7357 55.3744 34.5946C55.6094 34.4536 55.8785 34.3796 56.1526 34.3808C56.2802 34.3797 56.4071 34.3989 56.5286 34.4378L56.4906 35.3478C56.3563 35.3084 56.2175 35.2862 56.0776 35.2818C55.2516 35.2818 54.8006 35.7328 54.8006 36.7088V38.9438H53.9556V34.4958Z" fill="white"/>
<path d="M57.8046 34.4958H58.6496V35.1808H58.6685C58.8125 34.9229 59.0265 34.7111 59.2857 34.5695C59.5449 34.428 59.8388 34.3625 60.1336 34.3808C60.3564 34.368 60.5793 34.404 60.7868 34.4861C60.9944 34.5682 61.1815 34.6946 61.3352 34.8564C61.4889 35.0182 61.6056 35.2115 61.6769 35.423C61.7483 35.6344 61.7728 35.8589 61.7486 36.0808V38.9448H60.9036V36.3178C60.9036 35.4818 60.4246 35.1718 59.8896 35.1718C59.1896 35.1718 58.6506 35.6228 58.6506 36.6548V38.9458H57.8056L57.8046 34.4958Z" fill="white"/>
<path d="M66.5355 32.2988H67.8785L69.9905 37.3308H70.0285L72.1225 32.2988H73.4655V38.9458H72.5655V33.4818H72.5465L70.3025 38.9458H69.7025L67.4585 33.4818H67.4395V38.9458H66.5395L66.5355 32.2988Z" fill="white"/>
<path d="M77.4156 34.3829C77.8768 34.3884 78.326 34.5302 78.7068 34.7904C79.0876 35.0506 79.3829 35.4177 79.5555 35.8454C79.7282 36.2731 79.7705 36.7422 79.6772 37.1939C79.5838 37.6456 79.359 38.0595 79.0309 38.3837C78.7029 38.7079 78.2862 38.9278 77.8335 39.0158C77.3807 39.1038 76.9121 39.0558 76.4865 38.8781C76.0609 38.7003 75.6975 38.4007 75.4418 38.0168C75.1861 37.633 75.0496 37.1821 75.0496 36.7209C75.0495 36.4115 75.111 36.1051 75.2302 35.8196C75.3495 35.5341 75.5242 35.2751 75.7443 35.0577C75.9643 34.8402 76.2254 34.6686 76.5123 34.5527C76.7992 34.4369 77.1062 34.3792 77.4156 34.3829ZM77.4156 38.2699C77.7255 38.2873 78.0336 38.2113 78.2999 38.0517C78.5662 37.8921 78.7785 37.6563 78.9092 37.3747C79.04 37.0932 79.0833 36.7788 79.0335 36.4724C78.9837 36.166 78.8431 35.8816 78.6298 35.6559C78.4166 35.4303 78.1405 35.2739 77.8374 35.2069C77.5343 35.1399 77.218 35.1654 76.9295 35.2801C76.641 35.3948 76.3936 35.5934 76.2193 35.8503C76.045 36.1071 75.9517 36.4104 75.9516 36.7209C75.9348 36.9212 75.9604 37.1229 76.0269 37.3126C76.0934 37.5024 76.1992 37.676 76.3374 37.822C76.4756 37.968 76.6431 38.0832 76.8289 38.1601C77.0147 38.2369 77.2146 38.2736 77.4156 38.2679V38.2699Z" fill="white"/>
<path d="M81.2186 34.4958H82.0637V35.1808H82.0826C82.2105 34.9384 82.4024 34.7357 82.6374 34.5946C82.8724 34.4536 83.1416 34.3796 83.4156 34.3808C83.5429 34.3798 83.6695 34.399 83.7906 34.4378L83.7526 35.3478C83.6183 35.3084 83.4796 35.2862 83.3397 35.2818C82.5137 35.2818 82.0626 35.7328 82.0626 36.7088V38.9438H81.2177L81.2186 34.4958Z" fill="white"/>
<path d="M85.5376 37.0309C85.5502 37.2149 85.5991 37.3945 85.6815 37.5596C85.7638 37.7247 85.878 37.8718 86.0174 37.9926C86.1567 38.1134 86.3186 38.2055 86.4937 38.2635C86.6688 38.3216 86.8536 38.3445 87.0376 38.3308C87.279 38.3237 87.5153 38.2597 87.7273 38.144C87.9393 38.0282 88.121 37.864 88.2575 37.6648L88.8966 38.1529C88.6666 38.4535 88.3668 38.6935 88.0232 38.8522C87.6796 39.0109 87.3026 39.0836 86.9246 39.0638C86.6165 39.0756 86.3094 39.0229 86.0229 38.909C85.7365 38.795 85.477 38.6224 85.2613 38.4023C85.0455 38.1821 84.8782 37.9191 84.7701 37.6304C84.662 37.3417 84.6155 37.0336 84.6336 36.7259C84.6222 36.419 84.6736 36.113 84.7847 35.8268C84.8958 35.5405 85.0642 35.2799 85.2795 35.0609C85.4949 34.842 85.7526 34.6694 86.0371 34.5537C86.3215 34.4379 86.6265 34.3815 86.9336 34.3878C87.2361 34.3797 87.537 34.4364 87.8159 34.554C88.0948 34.6716 88.3453 34.8475 88.5507 35.0699C88.7561 35.2922 88.9116 35.5558 89.0067 35.8432C89.1019 36.1305 89.1346 36.4349 89.1026 36.7359V37.0359L85.5376 37.0309ZM88.2036 36.3548C88.2186 36.1815 88.1957 36.0071 88.1366 35.8435C88.0774 35.6799 87.9834 35.5312 87.8611 35.4075C87.7388 35.2838 87.591 35.1882 87.4281 35.1274C87.2652 35.0665 87.091 35.0417 86.9176 35.0548C86.5645 35.0525 86.2242 35.1863 85.9672 35.4284C85.7102 35.6705 85.5563 36.0023 85.5376 36.3548H88.2036Z" fill="white"/>
<path d="M91.1605 37.7638C91.2831 37.7638 91.403 37.8002 91.505 37.8683C91.607 37.9364 91.6864 38.0333 91.7333 38.1465C91.7803 38.2598 91.7925 38.3845 91.7686 38.5048C91.7447 38.625 91.6856 38.7355 91.5989 38.8222C91.5122 38.9089 91.4018 38.968 91.2815 38.9919C91.1612 39.0158 91.0366 39.0035 90.9233 38.9566C90.81 38.9097 90.7131 38.8302 90.645 38.7283C90.5769 38.6263 90.5405 38.5065 90.5405 38.3839C90.5418 38.2198 90.6076 38.0628 90.7236 37.9468C90.8396 37.8308 90.9965 37.7651 91.1605 37.7638ZM91.5925 37.0318H90.6925V32.2998H91.5925V37.0318Z" fill="white"/>
<path d="M20.0245 25.9251C23.5483 25.9251 26.405 25.7664 26.405 25.5708C26.405 25.3751 23.5483 25.2164 20.0245 25.2164C16.5006 25.2164 13.6439 25.3751 13.6439 25.5708C13.6439 25.7664 16.5006 25.9251 20.0245 25.9251Z" fill="#F573BC" stroke="white" stroke-width="1.3"/>
<g filter="url(#filter0_d)">
<path d="M20.1106 25.5113C25.1412 25.5113 29.2193 21.4332 29.2193 16.4026C29.2193 11.372 25.1412 7.29395 20.1106 7.29395C15.08 7.29395 11.002 11.372 11.002 16.4026C11.002 21.4332 15.08 25.5113 20.1106 25.5113Z" fill="white" stroke="white" stroke-width="1.3"/>
</g>
<path d="M26.8893 16.258C26.8893 17.6275 26.4833 18.9662 25.7224 20.1049C24.9616 21.2435 23.8801 22.131 22.6149 22.6551C21.3497 23.1792 19.9574 23.3163 18.6143 23.0491C17.2711 22.782 16.0373 22.1225 15.069 21.1541C14.1006 20.1858 13.4411 18.952 13.1739 17.6088C12.9068 16.2656 13.0439 14.8734 13.568 13.6082C14.0921 12.3429 14.9795 11.2615 16.1182 10.5007C17.2569 9.73984 18.5956 9.33374 19.9651 9.33374C20.8744 9.33374 21.7748 9.51285 22.6149 9.86082C23.455 10.2088 24.2183 10.7188 24.8613 11.3618C25.5043 12.0048 26.0143 12.7681 26.3623 13.6082C26.7103 14.4483 26.8893 15.3487 26.8893 16.258Z" fill="#F573BC" stroke="white" stroke-width="1.3"/>
<path d="M27.086 16.3561C27.0859 17.7449 26.6741 19.1025 25.9024 20.2571C25.1308 21.4118 24.0341 22.3118 22.751 22.8432C21.4679 23.3746 20.056 23.5136 18.694 23.2426C17.3319 22.9716 16.0807 22.3028 15.0987 21.3207C14.1168 20.3387 13.448 19.0875 13.1771 17.7254C12.9062 16.3633 13.0453 14.9514 13.5768 13.6684C14.1083 12.3853 15.0083 11.2887 16.163 10.5171C17.3178 9.74555 18.6754 9.33374 20.0641 9.33374C20.9863 9.33374 21.8995 9.51538 22.7514 9.86829C23.6034 10.2212 24.3775 10.7385 25.0295 11.3906C25.6816 12.0427 26.1988 12.8168 26.5517 13.6688C26.9045 14.5208 27.0861 15.4339 27.086 16.3561Z" fill="#F573BC" stroke="white" stroke-width="1.3"/>
<g filter="url(#filter1_d)">
<path d="M30.6154 17.6421H24.885C24.8605 17.6421 24.8389 17.6421 24.8149 17.6421H15.0059C14.9819 17.6421 14.9598 17.6421 14.9359 17.6421H9.20545C7.89184 17.6421 7.45459 18.1098 7.45459 19.5141V27.6723C7.45459 35.2042 11.9115 39.8431 19.9106 39.8431C27.9098 39.8431 32.3662 35.2047 32.3662 27.6723V19.5141C32.3662 18.1098 31.9285 17.6421 30.6154 17.6421Z" fill="white" stroke="white" stroke-width="1.3"/>
</g>
<path d="M9.42529 28.0215V21.336C9.42529 20.1855 9.7856 19.8021 10.8679 19.8021H15.5874C15.6072 19.8021 15.6257 19.8021 15.6455 19.8021H24.2957C24.3155 19.8021 24.3339 19.8021 24.3547 19.8021H28.5015C29.5833 19.8021 29.9441 20.1855 29.9441 21.336V28.0215C29.9441 34.1035 26.3783 37.8817 19.9715 37.99C19.8766 37.99 19.7821 37.995 19.6849 37.995C13.0961 37.9955 9.42529 34.1943 9.42529 28.0215ZM9.99847 21.336C9.99702 21.1665 10.0073 20.9972 10.0293 20.8291C10.0073 20.9972 9.99702 21.1665 9.99847 21.336Z" fill="#F573BC"/>
<path d="M24.3662 19.8011H23.7566C23.735 19.8011 23.7156 19.8011 23.694 19.8011H24.3031C24.3247 19.8025 24.3445 19.8011 24.3662 19.8011Z" fill="#F573BC"/>
<path d="M24.0072 31.3002C24.0105 31.409 23.979 31.516 23.9173 31.6057C23.8915 31.645 23.857 31.6779 23.8165 31.7019C23.776 31.7258 23.7306 31.7402 23.6837 31.7439L21.5255 31.7559C21.4666 31.7561 21.4086 31.742 21.3563 31.7148C21.3041 31.6876 21.2592 31.6481 21.2256 31.5997L19.6189 29.2959L17.9284 31.5864C17.8955 31.6593 17.8384 31.7185 17.7667 31.7541C17.691 31.794 17.6067 31.8146 17.5211 31.814H15.8062C15.7435 31.819 15.6805 31.8103 15.6215 31.7886C15.5625 31.7668 15.5089 31.7326 15.4644 31.6881C15.4199 31.6436 15.3857 31.59 15.3639 31.531C15.3422 31.472 15.3335 31.409 15.3385 31.3463V24.0341C15.3363 23.9721 15.3468 23.9103 15.3695 23.8525C15.3922 23.7948 15.4266 23.7423 15.4705 23.6984C15.5144 23.6545 15.5668 23.6202 15.6246 23.5975C15.6824 23.5748 15.7442 23.5642 15.8062 23.5665H17.5211C17.6449 23.5673 17.7634 23.6169 17.8509 23.7044C17.9384 23.7919 17.9879 23.9104 17.9888 24.0341V27.2133L20.6386 23.8438C20.7284 23.7463 20.8415 23.6731 20.9673 23.6312C21.0931 23.5893 21.2275 23.58 21.3578 23.6042L23.2045 23.6162H23.1926C23.23 23.6172 23.2669 23.626 23.3009 23.6419C23.3348 23.6578 23.3651 23.6805 23.3899 23.7087C23.4147 23.7368 23.4334 23.7698 23.4449 23.8055C23.4563 23.8412 23.4603 23.8789 23.4566 23.9162C23.4495 24.0559 23.3993 24.19 23.3128 24.3L21.2744 27.0696L23.9362 31.0385C23.9834 31.1176 24.0079 31.2081 24.0072 31.3002Z" fill="white"/>
<defs>
<filter id="filter0_d" x="4.35193" y="3.64392" width="31.5173" height="31.5173" filterUnits="userSpaceOnUse" color-interpolation-filters="sRGB">
<feFlood flood-opacity="0" result="BackgroundImageFix"/>
<feColorMatrix in="SourceAlpha" type="matrix" values="0 0 0 0 0 0 0 0 0 0 0 0 0 0 0 0 0 0 127 0"/>
<feOffset dy="3"/>
<feGaussianBlur stdDeviation="3"/>
<feColorMatrix type="matrix" values="0 0 0 0 0 0 0 0 0 0 0 0 0 0 0 0 0 0 0.161 0"/>
<feBlend mode="normal" in2="BackgroundImageFix" result="effect1_dropShadow"/>
<feBlend mode="normal" in="SourceGraphic" in2="effect1_dropShadow" result="shape"/>
</filter>
<filter id="filter1_d" x="0.804565" y="13.9921" width="38.2116" height="35.501" filterUnits="userSpaceOnUse" color-interpolation-filters="sRGB">
<feFlood flood-opacity="0" result="BackgroundImageFix"/>
<feColorMatrix in="SourceAlpha" type="matrix" values="0 0 0 0 0 0 0 0 0 0 0 0 0 0 0 0 0 0 127 0"/>
<feOffset dy="3"/>
<feGaussianBlur stdDeviation="3"/>
<feColorMatrix type="matrix" values="0 0 0 0 0 0 0 0 0 0 0 0 0 0 0 0 0 0 0.161 0"/>
<feBlend mode="normal" in2="BackgroundImageFix" result="effect1_dropShadow"/>
<feBlend mode="normal" in="SourceGraphic" in2="effect1_dropShadow" result="shape"/>
</filter>
</defs>
</svg>
